<svg xmlns="http://www.w3.org/2000/svg" xmlns:xlink="http://www.w3.org/1999/xlink" width="990" height="168.55"><rect width="990" height="168.55" rx="5" ry="5" class="a"/><svg y="0%" x="0%"><circle cx="20" cy="20" r="6" fill="#ff5f58"/><circle cx="40" cy="20" r="6" fill="#ffbd2e"/><circle cx="60" cy="20" r="6" fill="#18c132"/></svg><svg height="108.55" viewBox="0 0 95 10.855" width="950" x="15" xmlns="http://www.w3.org/2000/svg" xmlns:xlink="http://www.w3.org/1999/xlink" y="50"><style>@keyframes n{0%{transform:translateX(0)}5.9%{transform:translateX(-190px)}7.4%{transform:translateX(-475px)}24.5%{transform:translateX(-570px)}27.5%{transform:translateX(-665px)}30.1%{transform:translateX(-760px)}31.5%{transform:translateX(-855px)}34.5%{transform:translateX(-950px)}40.6%{transform:translateX(-1045px)}42.3%{transform:translateX(-1140px)}45%{transform:translateX(-1235px)}49.6%{transform:translateX(-1330px)}50.5%{transform:translateX(-1425px)}53.6%{transform:translateX(-1520px)}55.5%{transform:translateX(-1615px)}64.2%{transform:translateX(-1710px)}67.8%{transform:translateX(-1805px)}72.1%{transform:translateX(-1900px)}72.2%{transform:translateX(-2280px)}73.5%{transform:translateX(-2565px)}to{transform:translateX(-2660px)}}.a{fill:#002b36}.f{fill:#839496}.g{fill:#71bef2}.i{fill:#dbab79}.j{fill:#268bd2}.k{fill:#b58900}.l{fill:#859900}.p{fill:#dc322f;font-weight:700}</style><g font-size="1.67" font-family="Monaco,Consolas,Menlo,'Bitstream Vera Sans Mono','Powerline Symbols',monospace"><defs><symbol id="1">0<text y="1.67" class="f">ivandemidov@scrum</text><path class="g" d="M19.038 0h27v2.171h-27z"/><text x="19.038" y="1.67" class="h"> ~/Projects/svg-term-demo</text><path class="i" d="M46.092 0h1v2.171h-1z"/><text x="46.092" y="1.67" class="j"></text><path class="i" d="M47.094 0h12v2.171h-12z"/><text x="47.094" y="1.67" class="h"> master ●</text><text x="59.118" y="1.67" class="k"></text></symbol><symbol id="2">0<text y="1.67" class="f">ivandemidov@scrum</text><path class="g" d="M19.038 0h27v2.171h-27z"/><text x="19.038" y="1.67" class="h"> ~/Projects/svg-term-demo</text><path class="i" d="M46.092 0h1v2.171h-1z"/><text x="46.092" y="1.67" class="j"></text><path class="i" d="M47.094 0h12v2.171h-12z"/><text x="47.094" y="1.67" class="h"> master ●</text><text x="59.118" y="1.67" class="k"></text><text x="61.122" y="1.67" class="l">echo</text></symbol><symbol id="3">0<text y="1.67" class="f">ivandemidov@scrum</text><path class="g" d="M19.038 0h27v2.171h-27z"/><text x="19.038" y="1.67" class="h"> ~/Projects/svg-term-demo</text><path class="i" d="M46.092 0h1v2.171h-1z"/><text x="46.092" y="1.67" class="j"></text><path class="i" d="M47.094 0h12v2.171h-12z"/><text x="47.094" y="1.67" class="h"> master ●</text><text x="59.118" y="1.67" class="k"></text><text x="61.122" y="1.67" class="l">echo</text><text x="66.132" y="1.67" class="k">&quot;&quot;</text></symbol><symbol id="4">0<text y="1.67" class="f">ivandemidov@scrum</text><path class="g" d="M19.038 0h27v2.171h-27z"/><text x="19.038" y="1.67" class="h"> ~/Projects/svg-term-demo</text><path class="i" d="M46.092 0h1v2.171h-1z"/><text x="46.092" y="1.67" class="j"></text><path class="i" d="M47.094 0h12v2.171h-12z"/><text x="47.094" y="1.67" class="h"> master ●</text><text x="59.118" y="1.67" class="k"></text><text x="61.122" y="1.67" class="l">echo</text><text x="66.132" y="1.67" class="k">&quot;test2&quot;</text></symbol><symbol id="5"><text y="1.67" class="f">test2</text></symbol><symbol id="a"><path fill="transparent" d="M0 0h95v6H0z"/></symbol></defs><path class="a" d="M0 0h95v10.855H0z"/><g style="animation-duration:7.690796s;animation-iteration-count:infinite;animation-name:n;animation-timing-function:steps(1,end)"><svg width="2755"><svg><use xlink:href="#a"/></svg><svg x="95"><use xlink:href="#a"/></svg><svg x="190"><use xlink:href="#a"/></svg><svg x="285"><use xlink:href="#a"/><use xlink:href="#1"/></svg><svg x="380"><use xlink:href="#a"/><use xlink:href="#1"/></svg><svg x="475"><use xlink:href="#a"/><use xlink:href="#1"/></svg><svg x="570"><use xlink:href="#a"/>0<text y="1.67" class="f">ivandemidov@scrum</text><path class="g" d="M19.038 0h27v2.171h-27z"/><text x="19.038" y="1.67" class="h"> ~/Projects/svg-term-demo</text><path class="i" d="M46.092 0h1v2.171h-1z"/><text x="46.092" y="1.67" class="j"></text><path class="i" d="M47.094 0h12v2.171h-12z"/><text x="47.094" y="1.67" class="h"> master ●</text><text x="59.118" y="1.67" class="k"></text><text x="61.122" y="1.67" class="p">e</text></svg><svg x="665"><use xlink:href="#a"/>0<text y="1.67" class="f">ivandemidov@scrum</text><path class="g" d="M19.038 0h27v2.171h-27z"/><text x="19.038" y="1.67" class="h"> ~/Projects/svg-term-demo</text><path class="i" d="M46.092 0h1v2.171h-1z"/><text x="46.092" y="1.67" class="j"></text><path class="i" d="M47.094 0h12v2.171h-12z"/><text x="47.094" y="1.67" class="h"> master ●</text><text x="59.118" y="1.67" class="k"></text><text x="61.122" y="1.67" class="p">ec</text></svg><svg x="760"><use xlink:href="#a"/>0<text y="1.67" class="f">ivandemidov@scrum</text><path class="g" d="M19.038 0h27v2.171h-27z"/><text x="19.038" y="1.67" class="h"> ~/Projects/svg-term-demo</text><path class="i" d="M46.092 0h1v2.171h-1z"/><text x="46.092" y="1.67" class="j"></text><path class="i" d="M47.094 0h12v2.171h-12z"/><text x="47.094" y="1.67" class="h"> master ●</text><text x="59.118" y="1.67" class="k"></text><text x="61.122" y="1.67" class="p">ech</text></svg><svg x="855"><use xlink:href="#a"/><use xlink:href="#2"/></svg><svg x="950"><use xlink:href="#a"/><use xlink:href="#2"/></svg><svg x="1045"><use xlink:href="#a"/>0<text y="1.67" class="f">ivandemidov@scrum</text><path class="g" d="M19.038 0h27v2.171h-27z"/><text x="19.038" y="1.67" class="h"> ~/Projects/svg-term-demo</text><path class="i" d="M46.092 0h1v2.171h-1z"/><text x="46.092" y="1.67" class="j"></text><path class="i" d="M47.094 0h12v2.171h-12z"/><text x="47.094" y="1.67" class="h"> master ●</text><text x="59.118" y="1.67" class="k"></text><text x="61.122" y="1.67" class="l">echo</text><text x="66.132" y="1.67" class="k">&quot;</text></svg><svg x="1140"><use xlink:href="#a"/><use xlink:href="#3"/></svg><svg x="1235"><use xlink:href="#a"/><use xlink:href="#3"/></svg><svg x="1330"><use xlink:href="#a"/>0<text y="1.67" class="f">ivandemidov@scrum</text><path class="g" d="M19.038 0h27v2.171h-27z"/><text x="19.038" y="1.67" class="h"> ~/Projects/svg-term-demo</text><path class="i" d="M46.092 0h1v2.171h-1z"/><text x="46.092" y="1.67" class="j"></text><path class="i" d="M47.094 0h12v2.171h-12z"/><text x="47.094" y="1.67" class="h"> master ●</text><text x="59.118" y="1.67" class="k"></text><text x="61.122" y="1.67" class="l">echo</text><text x="66.132" y="1.67" class="k">&quot;t&quot;</text></svg><svg x="1425"><use xlink:href="#a"/>0<text y="1.67" class="f">ivandemidov@scrum</text><path class="g" d="M19.038 0h27v2.171h-27z"/><text x="19.038" y="1.67" class="h"> ~/Projects/svg-term-demo</text><path class="i" d="M46.092 0h1v2.171h-1z"/><text x="46.092" y="1.67" class="j"></text><path class="i" d="M47.094 0h12v2.171h-12z"/><text x="47.094" y="1.67" class="h"> master ●</text><text x="59.118" y="1.67" class="k"></text><text x="61.122" y="1.67" class="l">echo</text><text x="66.132" y="1.67" class="k">&quot;te&quot;</text></svg><svg x="1520"><use xlink:href="#a"/>0<text y="1.67" class="f">ivandemidov@scrum</text><path class="g" d="M19.038 0h27v2.171h-27z"/><text x="19.038" y="1.67" class="h"> ~/Projects/svg-term-demo</text><path class="i" d="M46.092 0h1v2.171h-1z"/><text x="46.092" y="1.67" class="j"></text><path class="i" d="M47.094 0h12v2.171h-12z"/><text x="47.094" y="1.67" class="h"> master ●</text><text x="59.118" y="1.67" class="k"></text><text x="61.122" y="1.67" class="l">echo</text><text x="66.132" y="1.67" class="k">&quot;tes&quot;</text></svg><svg x="1615"><use xlink:href="#a"/>0<text y="1.67" class="f">ivandemidov@scrum</text><path class="g" d="M19.038 0h27v2.171h-27z"/><text x="19.038" y="1.67" class="h"> ~/Projects/svg-term-demo</text><path class="i" d="M46.092 0h1v2.171h-1z"/><text x="46.092" y="1.67" class="j"></text><path class="i" d="M47.094 0h12v2.171h-12z"/><text x="47.094" y="1.67" class="h"> master ●</text><text x="59.118" y="1.67" class="k"></text><text x="61.122" y="1.67" class="l">echo</text><text x="66.132" y="1.67" class="k">&quot;test&quot;</text></svg><svg x="1710"><use xlink:href="#a"/><use xlink:href="#4"/></svg><svg x="1805"><use xlink:href="#a"/><use xlink:href="#4"/></svg><svg x="1900"><use xlink:href="#a"/><use xlink:href="#4"/></svg><svg x="1995"><use xlink:href="#a"/><use xlink:href="#4"/></svg><svg x="2090"><use xlink:href="#a"/><use xlink:href="#4"/></svg><svg x="2185"><use xlink:href="#a"/><use xlink:href="#4"/><use xlink:href="#5" y="2.171"/></svg><svg x="2280"><use xlink:href="#a"/><use xlink:href="#4"/><use xlink:href="#5" y="2.171"/></svg><svg x="2375"><use xlink:href="#a"/><use xlink:href="#4"/><use xlink:href="#5" y="2.171"/><use xlink:href="#1" y="4.342"/></svg><svg x="2470"><use xlink:href="#a"/><use xlink:href="#4"/><use xlink:href="#5" y="2.171"/><use xlink:href="#1" y="4.342"/></svg><svg x="2565"><use xlink:href="#a"/><use xlink:href="#4"/><use xlink:href="#5" y="2.171"/><use xlink:href="#1" y="4.342"/></svg><svg x="2660"><use xlink:href="#a"/><use xlink:href="#4"/><use xlink:href="#5" y="2.171"/><use xlink:href="#1" y="4.342"/></svg></svg></g></g></svg></svg>