<svg xmlns="http://www.w3.org/2000/svg" xmlns:xlink="http://www.w3.org/1999/xlink" width="1950" height="10855"><rect width="1950" height="10855" rx="0" ry="0" class="a"/><svg height="10855" viewBox="0 0 195 1085.5" width="1950" xmlns="http://www.w3.org/2000/svg" xmlns:xlink="http://www.w3.org/1999/xlink"><style>@keyframes k{0%{transform:translateX(0)}2.2%{transform:translateX(-390px)}2.3%{transform:translateX(-975px)}9.4%{transform:translateX(-1170px)}10.9%{transform:translateX(-1365px)}12%{transform:translateX(-1560px)}12.8%{transform:translateX(-1755px)}27.9%{transform:translateX(-1950px)}30.8%{transform:translateX(-2145px)}31.9%{transform:translateX(-2340px)}33.7%{transform:translateX(-2535px)}43.3%{transform:translateX(-2730px)}46%{transform:translateX(-2925px)}47.8%{transform:translateX(-3120px)}63.9%{transform:translateX(-3315px)}73.2%{transform:translateX(-3510px)}74.6%{transform:translateX(-3705px)}84.3%{transform:translateX(-3900px)}90.2%{transform:translateX(-4095px)}90.3%{transform:translateX(-4875px)}90.4%{transform:translateX(-5460px)}95.2%{transform:translateX(-5655px)}96.6%{transform:translateX(-5850px)}98.2%{transform:translateX(-6045px)}98.9%{transform:translateX(-6240px)}to{transform:translateX(-6825px)}}.a{fill:rgb(4,32,41,245)}.c{fill:#708284}.d{fill:#71bef2}.f{fill:#492ee1}.g{fill:#c23621;font-weight:700}.h{fill:#25bc24}.i{fill:#adad27}</style><g font-size="1.67" font-family="Monaco,Consolas,Menlo,'Bitstream Vera Sans Mono','Powerline Symbols',monospace"><defs><symbol id="1">0<text y="1.67" class="c">ivandemidov@scrum</text><path class="d" d="M19.038 0h4v2.171h-4z"/><text x="19.038" y="1.67" class="e"> ~</text><text x="23.046" y="1.67" class="f"></text></symbol><symbol id="2">0<text y="1.67" class="c">ivandemidov@scrum</text><path class="d" d="M19.038 0h4v2.171h-4z"/><text x="19.038" y="1.67" class="e"> ~</text><text x="23.046" y="1.67" class="f"></text><text x="25.05" y="1.67" class="g">e</text></symbol><symbol id="3">0<text y="1.67" class="c">ivandemidov@scrum</text><path class="d" d="M19.038 0h4v2.171h-4z"/><text x="19.038" y="1.67" class="e"> ~</text><text x="23.046" y="1.67" class="f"></text><text x="25.05" y="1.67" class="h">echo</text></symbol><symbol id="4">0<text y="1.67" class="c">ivandemidov@scrum</text><path class="d" d="M19.038 0h4v2.171h-4z"/><text x="19.038" y="1.67" class="e"> ~</text><text x="23.046" y="1.67" class="f"></text><text x="25.05" y="1.67" class="h">echo</text><text x="30.06" y="1.67" class="i">&quot;&quot;</text></symbol><symbol id="5">0<text y="1.67" class="c">ivandemidov@scrum</text><path class="d" d="M19.038 0h4v2.171h-4z"/><text x="19.038" y="1.67" class="e"> ~</text><text x="23.046" y="1.67" class="f"></text><text x="25.05" y="1.67" class="h">echo</text><text x="30.06" y="1.67" class="i">&quot;my</text><text x="34.068" y="1.67" class="i">two&quot;</text></symbol><symbol id="6"><text y="1.67" class="c">my</text><text x="3.006" y="1.67" class="c">two</text></symbol><symbol id="7">0<text y="1.67" class="c">ivandemidov@scrum</text><path class="d" d="M19.038 0h4v2.171h-4z"/><text x="19.038" y="1.67" class="e"> ~</text><text x="23.046" y="1.67" class="f"></text><text x="25.05" y="1.67" class="h">exit</text></symbol><symbol id="a"><path fill="transparent" d="M0 0h195v501H0z"/></symbol><symbol id="b"><path class="c" d="M0 0h1.102v2.171H0z"/></symbol></defs><path class="a" d="M0 0h195v1085.5H0z"/><g style="animation-duration:15.997652s;animation-iteration-count:infinite;animation-name:k;animation-timing-function:steps(1,end)"><svg width="7020"><svg><use xlink:href="#a"/><use xlink:href="#b" x="-.004"/></svg><svg x="195"><use xlink:href="#a"/><use xlink:href="#b" x="-.004"/></svg><svg x="390"><use xlink:href="#a"/><use xlink:href="#b" x="-.004"/></svg><svg x="585"><use xlink:href="#a"/><use xlink:href="#b" x="24.996"/><use xlink:href="#1"/></svg><svg x="780"><use xlink:href="#a"/><use xlink:href="#b" x="24.996"/><use xlink:href="#1"/></svg><svg x="975"><use xlink:href="#a"/><use xlink:href="#b" x="24.996"/><use xlink:href="#1"/></svg><svg x="1170"><use xlink:href="#a"/><use xlink:href="#b" x="25.996"/><use xlink:href="#2"/></svg><svg x="1365"><use xlink:href="#a"/><use xlink:href="#b" x="26.996"/>0<text y="1.67" class="c">ivandemidov@scrum</text><path class="d" d="M19.038 0h4v2.171h-4z"/><text x="19.038" y="1.67" class="e"> ~</text><text x="23.046" y="1.67" class="f"></text><text x="25.05" y="1.67" class="g">ec</text></svg><svg x="1560"><use xlink:href="#a"/><use xlink:href="#b" x="27.996"/>0<text y="1.67" class="c">ivandemidov@scrum</text><path class="d" d="M19.038 0h4v2.171h-4z"/><text x="19.038" y="1.67" class="e"> ~</text><text x="23.046" y="1.67" class="f"></text><text x="25.05" y="1.67" class="g">ech</text></svg><svg x="1755"><use xlink:href="#a"/><use xlink:href="#b" x="28.996"/><use xlink:href="#3"/></svg><svg x="1950"><use xlink:href="#a"/><use xlink:href="#b" x="29.996"/><use xlink:href="#3"/></svg><svg x="2145"><use xlink:href="#a"/><use xlink:href="#b" x="30.996"/>0<text y="1.67" class="c">ivandemidov@scrum</text><path class="d" d="M19.038 0h4v2.171h-4z"/><text x="19.038" y="1.67" class="e"> ~</text><text x="23.046" y="1.67" class="f"></text><text x="25.05" y="1.67" class="h">echo</text><text x="30.06" y="1.67" class="i">&quot;</text></svg><svg x="2340"><use xlink:href="#a"/><use xlink:href="#b" x="31.996"/><use xlink:href="#4"/></svg><svg x="2535"><use xlink:href="#a"/><use xlink:href="#b" x="30.996"/><use xlink:href="#4"/></svg><svg x="2730"><use xlink:href="#a"/><use xlink:href="#b" x="31.996"/>0<text y="1.67" class="c">ivandemidov@scrum</text><path class="d" d="M19.038 0h4v2.171h-4z"/><text x="19.038" y="1.67" class="e"> ~</text><text x="23.046" y="1.67" class="f"></text><text x="25.05" y="1.67" class="h">echo</text><text x="30.06" y="1.67" class="i">&quot;m&quot;</text></svg><svg x="2925"><use xlink:href="#a"/><use xlink:href="#b" x="32.996"/>0<text y="1.67" class="c">ivandemidov@scrum</text><path class="d" d="M19.038 0h4v2.171h-4z"/><text x="19.038" y="1.67" class="e"> ~</text><text x="23.046" y="1.67" class="f"></text><text x="25.05" y="1.67" class="h">echo</text><text x="30.06" y="1.67" class="i">&quot;my&quot;</text></svg><svg x="3120"><use xlink:href="#a"/><use xlink:href="#b" x="33.996"/>0<text y="1.67" class="c">ivandemidov@scrum</text><path class="d" d="M19.038 0h4v2.171h-4z"/><text x="19.038" y="1.67" class="e"> ~</text><text x="23.046" y="1.67" class="f"></text><text x="25.05" y="1.67" class="h">echo</text><text x="30.06" y="1.67" class="i">&quot;my</text><text x="34.068" y="1.67" class="i">&quot;</text></svg><svg x="3315"><use xlink:href="#a"/><use xlink:href="#b" x="34.996"/>0<text y="1.67" class="c">ivandemidov@scrum</text><path class="d" d="M19.038 0h4v2.171h-4z"/><text x="19.038" y="1.67" class="e"> ~</text><text x="23.046" y="1.67" class="f"></text><text x="25.05" y="1.67" class="h">echo</text><text x="30.06" y="1.67" class="i">&quot;my</text><text x="34.068" y="1.67" class="i">t&quot;</text></svg><svg x="3510"><use xlink:href="#a"/><use xlink:href="#b" x="35.996"/>0<text y="1.67" class="c">ivandemidov@scrum</text><path class="d" d="M19.038 0h4v2.171h-4z"/><text x="19.038" y="1.67" class="e"> ~</text><text x="23.046" y="1.67" class="f"></text><text x="25.05" y="1.67" class="h">echo</text><text x="30.06" y="1.67" class="i">&quot;my</text><text x="34.068" y="1.67" class="i">tw&quot;</text></svg><svg x="3705"><use xlink:href="#a"/><use xlink:href="#b" x="36.996"/><use xlink:href="#5"/></svg><svg x="3900"><use xlink:href="#a"/><use xlink:href="#b" x="37.996"/><use xlink:href="#5"/></svg><svg x="4095"><use xlink:href="#a"/><use xlink:href="#b" x="37.996"/><use xlink:href="#5"/></svg><svg x="4290"><use xlink:href="#a"/><use xlink:href="#b" x="-.004" y="2.146"/><use xlink:href="#5"/></svg><svg x="4485"><use xlink:href="#a"/><use xlink:href="#b" x="-.004" y="2.146"/><use xlink:href="#5"/></svg><svg x="4680"><use xlink:href="#a"/><use xlink:href="#b" x="-.004" y="4.317"/><use xlink:href="#5"/><use xlink:href="#6" y="2.171"/></svg><svg x="4875"><use xlink:href="#a"/><use xlink:href="#b" x="-.004" y="4.317"/><use xlink:href="#5"/><use xlink:href="#6" y="2.171"/></svg><svg x="5070"><use xlink:href="#a"/><use xlink:href="#b" x="24.996" y="4.317"/><use xlink:href="#5"/><use xlink:href="#6" y="2.171"/><use xlink:href="#1" y="4.342"/></svg><svg x="5265"><use xlink:href="#a"/><use xlink:href="#b" x="24.996" y="4.317"/><use xlink:href="#5"/><use xlink:href="#6" y="2.171"/><use xlink:href="#1" y="4.342"/></svg><svg x="5460"><use xlink:href="#a"/><use xlink:href="#b" x="24.996" y="4.317"/><use xlink:href="#5"/><use xlink:href="#6" y="2.171"/><use xlink:href="#1" y="4.342"/></svg><svg x="5655"><use xlink:href="#a"/><use xlink:href="#b" x="25.996" y="4.317"/><use xlink:href="#5"/><use xlink:href="#6" y="2.171"/><use xlink:href="#2" y="4.342"/></svg><svg x="5850"><use xlink:href="#a"/><use xlink:href="#b" x="26.996" y="4.317"/><use xlink:href="#5"/><use xlink:href="#6" y="2.171"/>0<text y="6.012" class="c">ivandemidov@scrum</text><path class="d" d="M19.038 4.342h4v2.171h-4z"/><text x="19.038" y="6.012" class="e"> ~</text><text x="23.046" y="6.012" class="f"></text><text x="25.05" y="6.012" class="h">ex</text></svg><svg x="6045"><use xlink:href="#a"/><use xlink:href="#b" x="27.996" y="4.317"/><use xlink:href="#5"/><use xlink:href="#6" y="2.171"/>0<text y="6.012" class="c">ivandemidov@scrum</text><path class="d" d="M19.038 4.342h4v2.171h-4z"/><text x="19.038" y="6.012" class="e"> ~</text><text x="23.046" y="6.012" class="f"></text><text x="25.05" y="6.012" class="g">exi</text></svg><svg x="6240"><use xlink:href="#a"/><use xlink:href="#b" x="28.996" y="4.317"/><use xlink:href="#5"/><use xlink:href="#6" y="2.171"/><use xlink:href="#7" y="4.342"/></svg><svg x="6435"><use xlink:href="#a"/><use xlink:href="#b" x="28.996" y="4.317"/><use xlink:href="#5"/><use xlink:href="#6" y="2.171"/><use xlink:href="#7" y="4.342"/></svg><svg x="6630"><use xlink:href="#a"/><use xlink:href="#b" x="-.004" y="6.488"/><use xlink:href="#5"/><use xlink:href="#6" y="2.171"/><use xlink:href="#7" y="4.342"/></svg><svg x="6825"><use xlink:href="#a"/><use xlink:href="#b" x="-.004" y="6.488"/><use xlink:href="#5"/><use xlink:href="#6" y="2.171"/><use xlink:href="#7" y="4.342"/></svg></svg></g></g></svg></svg>